<svg width="145" height="169" viewBox="0 0 145 169" fill="none" xmlns="http://www.w3.org/2000/svg">
<path d="M109.253 24.2934C101.364 27.055 95.3077 29.136 89.5311 31.1975C87.4189 31.8976 85.4785 32.7243 83.3029 33.1518C80.3512 33.9101 76.6866 35.2715 74.5075 31.4068C72.4999 27.6687 75.9294 25.9082 78.3027 24.4976C80.6126 22.8146 83.6092 21.6378 86.3259 20.4805C98.6814 14.9172 111.209 9.48048 123.628 4.18972C127.012 2.84766 130.334 1.23306 134.017 0.562663C141.599 -1.07005 145.503 2.25985 144.805 9.64694C143.838 19.545 142.42 29.3359 141.001 39.1268C140.553 43.3119 139.997 47.6428 138.926 51.5941C138.314 53.8519 136.627 55.7688 135.392 57.7928C130.153 54.8323 130.855 51.7375 131.168 48.808C131.695 41.2943 132.501 33.7612 133.027 26.2476C133.124 23.61 133.33 20.8264 131.882 17.0496C129.59 19.4237 127.236 21.5253 125.116 24.026C109.305 42.8444 93.6015 61.5169 77.7901 80.3354C54.8622 107.678 32.0426 134.874 8.94313 162.09C7.03994 164.298 4.27847 165.874 1.36401 168.015C-1.32262 161.97 1.97994 159.664 3.99135 157.309C14.7239 143.55 25.9079 129.898 36.8121 116.266C60.4155 86.9385 84.0188 57.6109 107.622 28.2834C107.992 27.427 108.145 26.8626 109.253 24.2934Z" fill="white"/>
</svg>
