<svg width="49" height="91" viewBox="0 0 49 91" fill="none" xmlns="http://www.w3.org/2000/svg">
<g clip-path="url(#clip0_3_228)">
<path d="M0.745817 6.95533C12.9442 8.27644 32.2652 24.8667 37.8978 38.3911C44.0365 52.9932 43.344 62.292 34.385 82.8403C36.1349 82.2269 37.5125 81.6286 38.8374 81.2282C40.3298 80.7306 41.9122 80.2143 43.4543 79.9555C43.9043 79.8618 44.826 80.2303 44.9905 80.5697C45.1551 80.9091 44.6495 81.6372 44.2244 81.8502C40.129 83.824 36.0086 85.6783 31.8108 87.6111C30.4332 88.2094 29.2788 88.0761 28.6176 87.1551C26.37 83.5751 24.0325 80.0139 21.8624 76.3555C21.4061 75.5164 21.5423 74.3671 21.2937 73.1733C25.3618 73.3227 25.3593 75.5651 26.6723 76.9109C28.0877 78.2977 29.078 79.8974 30.5928 81.7617C34.6002 75.7583 36.7056 70.0887 37.5791 64.3643C40.906 43.3695 31.0586 26.7372 11.239 13.6136C8.63199 11.9145 5.70233 10.4694 3.01776 8.84876C2.43113 8.28587 1.85693 7.78266 0.745817 6.95533Z" fill="white"/>
</g>
<defs>
<clipPath id="clip0_3_228">
<rect width="85.3988" height="31.113" fill="white" transform="translate(31.2055 0.612854) rotate(78.2377)"/>
</clipPath>
</defs>
</svg>
