<svg width="68" height="113" viewBox="0 0 68 113" fill="none" xmlns="http://www.w3.org/2000/svg">
<g clip-path="url(#clip0_3_228)">
<path d="M67.7558 102.951C49.5438 101.989 21.5058 82.4439 13.8161 65.9471C5.42773 48.1386 6.98401 36.5416 21.5588 10.5007C18.9014 11.3608 16.803 12.1811 14.7947 12.7527C12.5298 13.4544 10.129 14.1843 7.80286 14.592C7.12321 14.7335 5.7621 14.3268 5.53434 13.9141C5.30658 13.5014 6.10505 12.5682 6.75409 12.2797C13.0032 9.59813 19.283 7.06354 25.6834 4.42715C27.7818 3.60678 29.5047 3.70814 30.4446 4.81612C33.6142 9.14075 36.9198 13.4371 39.9689 17.8635C40.6062 18.8811 40.338 20.3173 40.6441 21.7873C34.5542 21.8284 34.6829 19.0409 32.7898 17.4412C30.7454 15.7964 29.3501 13.863 27.1832 11.6301C20.8414 19.3157 17.3695 26.4803 15.7411 33.6445C9.58414 59.9264 23.4187 80.0518 52.3973 95.2599C56.2106 97.2266 60.5217 98.8596 64.4556 100.725C65.3036 101.392 66.1363 101.985 67.7558 102.951Z" fill="white"/>
</g>
<defs>
<clipPath id="clip0_3_228">
<rect width="105.16" height="47" fill="white" transform="translate(21.7427 112.533) rotate(-101.762)"/>
</clipPath>
</defs>
</svg>
