<svg width="185" height="207" viewBox="0 0 185 207" fill="none" xmlns="http://www.w3.org/2000/svg">
<g clip-path="url(#clip0_3_244)">
<path d="M41.5592 150.243C42.4496 142.116 43.0953 135.885 43.7851 129.927C43.9856 127.759 44.3465 125.731 44.2705 123.555C44.3389 120.567 44.8281 116.777 40.6207 115.428C36.5735 114.22 35.6475 117.861 34.8218 120.418C33.7196 122.966 33.2585 126.078 32.7533 128.916C30.1675 141.884 27.742 154.992 25.4326 167.967C24.8994 171.484 24.0896 174.993 24.2696 178.667C24.3971 186.281 28.4762 189.392 35.4289 187.291C44.7379 184.445 53.8426 181.185 62.9472 177.925C66.8744 176.684 70.9178 175.311 74.4804 173.515C76.5161 172.489 77.9829 170.495 79.6541 168.914C75.6312 164.445 72.8101 165.72 70.061 166.588C62.9481 168.549 55.8791 170.783 48.7662 172.744C46.2496 173.348 43.6168 174.084 39.6577 173.422C41.4291 170.757 42.9241 168.084 44.8558 165.561C59.4237 146.702 73.8754 127.976 88.4433 109.117C109.62 81.7602 130.68 54.5357 151.696 27.0381C153.396 24.779 154.294 21.8165 155.7 18.5974C149.281 17.1819 147.802 20.8064 145.986 23.1979C135.15 36.1895 124.518 49.5949 113.841 62.7272C90.9053 91.1184 67.9695 119.51 45.0337 147.901C44.2923 148.422 43.7834 148.679 41.5592 150.243Z" fill="white"/>
</g>
<defs>
<clipPath id="clip0_3_244">
<rect width="211" height="67" fill="white" transform="matrix(0.627685 -0.778468 -0.778468 -0.627685 52.3579 206.656)"/>
</clipPath>
</defs>
</svg>
